<?xml version="1.0" encoding="UTF-8"?>
<!DOCTYPE svg PUBLIC "-//W3C//DTD SVG 1.1//EN" "http://www.w3.org/Graphics/SVG/1.1/DTD/svg11.dtd">
<svg xmlns="http://www.w3.org/2000/svg" version="1.1" width="512px" height="512px" style="shape-rendering:geometricPrecision; text-rendering:geometricPrecision; image-rendering:optimizeQuality; fill-rule:evenodd; clip-rule:evenodd" xmlns:xlink="http://www.w3.org/1999/xlink">
<g><path style="opacity:1" fill="#fefffe" d="M 53.5,53.5 C 153.501,53.3333 253.501,53.5 353.5,54C 368.981,54.7435 382.314,60.4102 393.5,71C 411.029,88.1951 428.196,105.695 445,123.5C 450.567,130.971 454.234,139.304 456,148.5C 457.482,251.477 457.982,354.477 457.5,457.5C 322.833,457.5 188.167,457.5 53.5,457.5C 53.5,322.833 53.5,188.167 53.5,53.5 Z"/></g>
<g><path style="opacity:1" fill="#000000" d="M 82.5,82.5 C 103.5,82.5 124.5,82.5 145.5,82.5C 145.5,122.167 145.5,161.833 145.5,201.5C 212.833,201.5 280.167,201.5 347.5,201.5C 347.5,161.833 347.5,122.167 347.5,82.5C 356.027,81.7143 363.693,83.881 370.5,89C 387.667,106.167 404.833,123.333 422,140.5C 424.804,144.443 426.804,148.777 428,153.5C 428.5,245.166 428.667,336.833 428.5,428.5C 419.833,428.5 411.167,428.5 402.5,428.5C 402.5,370.833 402.5,313.167 402.5,255.5C 304.5,255.5 206.5,255.5 108.5,255.5C 108.5,313.167 108.5,370.833 108.5,428.5C 99.8333,428.5 91.1667,428.5 82.5,428.5C 82.5,313.167 82.5,197.833 82.5,82.5 Z"/></g>
<g><path style="opacity:1" fill="#000000" d="M 173.5,82.5 C 222.167,82.5 270.833,82.5 319.5,82.5C 319.5,112.5 319.5,142.5 319.5,172.5C 270.833,172.5 222.167,172.5 173.5,172.5C 173.5,142.5 173.5,112.5 173.5,82.5 Z"/></g>
<g><path style="opacity:1" fill="#000000" d="M 137.5,283.5 C 216.167,283.5 294.833,283.5 373.5,283.5C 373.5,331.833 373.5,380.167 373.5,428.5C 294.833,428.5 216.167,428.5 137.5,428.5C 137.5,380.167 137.5,331.833 137.5,283.5 Z"/></g>
<g><path style="opacity:1" fill="#51a43e" d="M 307.5,302.5 C 307.728,300.645 307.061,299.812 305.5,300C 296.429,307.518 287.429,315.018 278.5,322.5C 277.833,322.5 277.167,322.5 276.5,322.5C 276.237,311.847 280.904,304.347 290.5,300C 296.346,298.049 302.346,297.215 308.5,297.5C 308.784,299.415 308.451,301.081 307.5,302.5 Z"/></g>
<g><path style="opacity:1" fill="#5ab645" d="M 307.5,302.5 C 306.873,311.585 303.207,319.085 296.5,325C 294.527,325.495 292.527,325.662 290.5,325.5C 287.073,322.769 283.073,321.769 278.5,322.5C 287.429,315.018 296.429,307.518 305.5,300C 307.061,299.812 307.728,300.645 307.5,302.5 Z"/></g>
<g><path style="opacity:1" fill="#f5f5f5" d="M 276.5,322.5 C 277.167,322.5 277.833,322.5 278.5,322.5C 283.073,321.769 287.073,322.769 290.5,325.5C 305.493,344.902 306.327,364.902 293,385.5C 274.073,405.813 252.573,408.979 228.5,395C 207.946,376.895 204.113,355.728 217,331.5C 219.128,328.37 221.628,325.537 224.5,323C 228.486,322.501 232.486,322.334 236.5,322.5C 242.89,340.836 249.39,359.169 256,377.5C 262.371,358.875 269.204,340.541 276.5,322.5 Z"/></g>
<g><path style="opacity:1" fill="#040404" d="M 226.5,331.5 C 227.497,331.47 228.164,331.97 228.5,333C 236.495,353.656 243.662,374.489 250,395.5C 224.55,388.355 214.217,371.688 219,345.5C 221.271,340.62 223.771,335.954 226.5,331.5 Z"/></g>
<g><path style="opacity:1" fill="#030303" d="M 283.5,331.5 C 290.789,338.262 294.455,346.762 294.5,357C 293.05,377.781 282.217,390.614 262,395.5C 268.835,374.139 276.001,352.806 283.5,331.5 Z"/></g>
</svg>
